<svg height="512pt" viewBox="0 0 512 512" width="512pt" xmlns="http://www.w3.org/2000/svg">
<defs>
        <style>.cls-1{fill: rgb(255, 255, 255);}</style>
    </defs>
<g class="cls-1">
<path d="m211 0v40.53125c9.34375-4.46875 19.390625-7.476562 30-9.015625v-31.515625zm0 0"/><path d="m256 120c-8.277344 0-15 6.722656-15 15s6.722656 15 15 15 15-6.722656 15-15-6.722656-15-15-15zm0 0" /><path d="m331 135c0-41.351562-33.648438-75-75-75s-75 33.648438-75 75 33.648438 75 75 75 75-33.648438 75-75zm-75 45c-24.8125 0-45-20.1875-45-45s20.1875-45 45-45 45 20.1875 45 45-20.1875 45-45 45zm0 0" /><path d="m241 271v-32.515625c-10.609375-1.539063-20.65625-4.546875-30-9.015625v41.53125zm0 0" /><path d="m301 271v-41.53125c-9.34375 4.46875-19.390625 7.476562-30 9.015625v32.515625zm0 0"/><path d="m271 0v31.515625c10.609375 1.539063 20.65625 4.546875 30 9.015625v-40.53125zm0 0" /><path d="m181 0h-135c-8.289062 0-15 6.710938-15 15v256h150v-62.75c-18.5-18.9375-30-44.753906-30-73.25s11.5-54.3125 30-73.25zm0 0" /><path d="m481 15c0-8.289062-6.710938-15-15-15h-135v61.75c18.5 18.9375 30 44.753906 30 73.25s-11.5 54.3125-30 73.25v62.75h150zm-75 45h-30c-8.289062 0-15-6.710938-15-15s6.710938-15 15-15h30c8.289062 0 15 6.710938 15 15s-6.710938 15-15 15zm0 0" /><path d="m497 301h-482c-8.289062 0-15 6.710938-15 15v120c0 8.289062 6.710938 15 15 15h76v-60h-15c-8.289062 0-15-6.710938-15-15s6.710938-15 15-15h360c8.289062 0 15 6.710938 15 15s-6.710938 15-15 15h-15v60h76c8.289062 0 15-6.710938 15-15v-120c0-8.289062-6.710938-15-15-15zm0 0" /><path d="m121 497c0 8.285156 6.714844 15 15 15h240c8.285156 0 15-6.714844 15-15v-106h-270zm0 0" />

</g>
</svg>