<svg height="512pt" viewBox="-8 0 512 512" width="512pt" xmlns="http://www.w3.org/2000/svg">

<defs>
        <style>.cls-1{fill: rgb(255, 255, 255);}</style>
    </defs>

    <g class="cls-1">
		<path d="m240.238281 392c-4.421875 0-8.039062-3.574219-8.039062-8s3.535156-8 7.953125-8h.085937c4.417969 0 8 3.574219 8 8s-3.582031 8-8 8zm0 0"/><path d="m72 48c-4.425781 0-8-3.574219-8-8 0-22.054688 17.945312-40 40-40 4.425781 0 8 3.574219 8 8s-3.574219 8-8 8c-13.230469 0-24 10.769531-24 24 0 4.425781-3.574219 8-8 8zm0 0"/><path d="m440 80c-22.054688 0-40-17.945312-40-40s17.945312-40 40-40 40 17.945312 40 40-17.945312 40-40 40zm0-64c-13.230469 0-24 10.769531-24 24s10.769531 24 24 24 24-10.769531 24-24-10.769531-24-24-24zm0 0"/><path d="m440 16h-336c-4.425781 0-8-3.574219-8-8s3.574219-8 8-8h336c4.425781 0 8 3.574219 8 8s-3.574219 8-8 8zm0 0"/><path d="m488 48h-48c-4.425781 0-8-3.574219-8-8s3.574219-8 8-8h48c4.425781 0 8 3.574219 8 8s-3.574219 8-8 8zm0 0"/><path d="m40 512c-22.054688 0-40-17.945312-40-40s17.945312-40 40-40c4.425781 0 8 3.574219 8 8s-3.574219 8-8 8c-13.230469 0-24 10.769531-24 24s10.769531 24 24 24c4.425781 0 8 3.574219 8 8s-3.574219 8-8 8zm0 0"/><path d="m376 512c-22.054688 0-40-17.945312-40-40s17.945312-40 40-40 40 17.945312 40 40-17.945312 40-40 40zm0-64c-13.230469 0-24 10.769531-24 24s10.769531 24 24 24 24-10.769531 24-24-10.769531-24-24-24zm0 0"/><path d="m376 512h-336c-4.425781 0-8-3.574219-8-8s3.574219-8 8-8h336c4.425781 0 8 3.574219 8 8s-3.574219 8-8 8zm0 0"/><path d="m376 448h-336c-4.425781 0-8-3.574219-8-8s3.574219-8 8-8h336c4.425781 0 8 3.574219 8 8s-3.574219 8-8 8zm0 0"/><path d="m424 480h-48c-4.425781 0-8-3.574219-8-8s3.574219-8 8-8h48c4.425781 0 8 3.574219 8 8s-3.574219 8-8 8zm0 0"/><path d="m72 448c-4.425781 0-8-3.574219-8-8v-400c0-4.425781 3.574219-8 8-8s8 3.574219 8 8v400c0 4.425781-3.574219 8-8 8zm0 0"/><path d="m408 480c-4.425781 0-8-3.574219-8-8v-432c0-4.425781 3.574219-8 8-8s8 3.574219 8 8v432c0 4.425781-3.574219 8-8 8zm0 0"/><path d="m352 176h-32c-4.425781 0-8-3.574219-8-8s3.574219-8 8-8h32c4.425781 0 8 3.574219 8 8s-3.574219 8-8 8zm0 0"/><path d="m288 176h-160c-4.425781 0-8-3.574219-8-8s3.574219-8 8-8h160c4.425781 0 8 3.574219 8 8s-3.574219 8-8 8zm0 0"/><path d="m352 208h-168c-4.425781 0-8-3.574219-8-8s3.574219-8 8-8h168c4.425781 0 8 3.574219 8 8s-3.574219 8-8 8zm0 0"/><path d="m152 208h-24c-4.425781 0-8-3.574219-8-8s3.574219-8 8-8h24c4.425781 0 8 3.574219 8 8s-3.574219 8-8 8zm0 0"/><path d="m224 144h-96c-4.425781 0-8-3.574219-8-8s3.574219-8 8-8h96c4.425781 0 8 3.574219 8 8s-3.574219 8-8 8zm0 0"/><path d="m352 144h-96c-4.425781 0-8-3.574219-8-8s3.574219-8 8-8h96c4.425781 0 8 3.574219 8 8s-3.574219 8-8 8zm0 0"/><path d="m352 272h-32c-4.425781 0-8-3.574219-8-8s3.574219-8 8-8h32c4.425781 0 8 3.574219 8 8s-3.574219 8-8 8zm0 0"/><path d="m288 272h-160c-4.425781 0-8-3.574219-8-8s3.574219-8 8-8h160c4.425781 0 8 3.574219 8 8s-3.574219 8-8 8zm0 0"/><path d="m352 304h-168c-4.425781 0-8-3.574219-8-8s3.574219-8 8-8h168c4.425781 0 8 3.574219 8 8s-3.574219 8-8 8zm0 0"/><path d="m152 304h-24c-4.425781 0-8-3.574219-8-8s3.574219-8 8-8h24c4.425781 0 8 3.574219 8 8s-3.574219 8-8 8zm0 0"/><path d="m224 240h-96c-4.425781 0-8-3.574219-8-8s3.574219-8 8-8h96c4.425781 0 8 3.574219 8 8s-3.574219 8-8 8zm0 0"/><path d="m352 240h-96c-4.425781 0-8-3.574219-8-8s3.574219-8 8-8h96c4.425781 0 8 3.574219 8 8s-3.574219 8-8 8zm0 0"/><path d="m224 336h-96c-4.425781 0-8-3.574219-8-8s3.574219-8 8-8h96c4.425781 0 8 3.574219 8 8s-3.574219 8-8 8zm0 0"/><path d="m352 336h-96c-4.425781 0-8-3.574219-8-8s3.574219-8 8-8h96c4.425781 0 8 3.574219 8 8s-3.574219 8-8 8zm0 0"/><path d="m352 104h-224c-4.425781 0-8-3.574219-8-8v-24c0-4.425781 3.574219-8 8-8h224c4.425781 0 8 3.574219 8 8v24c0 4.425781-3.574219 8-8 8zm-216-16h208v-8h-208zm0 0"/><path d="m192.625 399.105469c-7.191406 0-16.449219-2.074219-28.199219-7.945313-18.882812-9.449218-27.503906-6.25-29.457031-3.238281-1.96875 3.941406-6.679688 5.398437-10.640625 3.40625-3.945313-1.96875-5.464844-6.945313-3.488281-10.894531.480468-.945313 12.007812-22.921875 50.734375-3.578125 18.875 9.441406 27.496093 6.242187 29.457031 3.242187 1.976562-3.945312 6.671875-5.410156 10.640625-3.410156 3.945313 1.96875 5.464844 6.945312 3.488281 10.898438-.328125.644531-6.03125 11.519531-22.535156 11.519531zm0 0"/><path d="m287.375 399.105469c-16.503906 0-22.199219-10.867188-22.527344-11.519531-1.976562-3.953126-.375-8.761719 3.578125-10.738282 3.855469-1.910156 8.519531-.449218 10.574219 3.289063 2.007812 2.984375 10.65625 6.101562 29.425781-3.289063 38.6875-19.34375 50.261719 2.632813 50.734375 3.578125 1.976563 3.949219.375 8.757813-3.574218 10.734375-3.953126 1.96875-8.761719.375-10.738282-3.574218-1.769531-2.675782-10.433594-5.84375-29.261718 3.574218-11.753907 5.871094-21.019532 7.945313-28.210938 7.945313zm0 0"/>
	</g>

</svg>